<?xml version="1.0" standalone="no"?>
<!DOCTYPE svg PUBLIC "-//W3C//DTD SVG 20010904//EN"
 "http://www.w3.org/TR/2001/REC-SVG-20010904/DTD/svg10.dtd">
<svg version="1.0" xmlns="http://www.w3.org/2000/svg"
 width="500.000000pt" height="340.000000pt" viewBox="0 0 500.000000 340.000000"
 preserveAspectRatio="xMidYMid meet">

<g transform="translate(0.000000,340.000000) scale(0.100000,-0.100000)"
fill="#000000" stroke="none">
<path d="M1721 3389 c-115 -16 -300 -66 -366 -100 -33 -17 -103 -59 -155 -93
-293 -192 -482 -422 -571 -696 -15 -47 -26 -86 -25 -87 1 -1 25 6 53 17 87 33
173 43 250 30 88 -14 120 -33 43 -25 -65 8 -167 -9 -224 -36 -23 -10 -77 -48
-121 -85 -162 -132 -280 -186 -410 -187 -61 0 -92 5 -129 22 -27 12 -51 19
-54 16 -3 -2 7 -20 22 -39 102 -134 259 -153 469 -56 88 40 192 70 244 70 42
0 45 -1 38 -22 -32 -103 -34 -118 -21 -167 23 -88 93 -154 246 -231 137 -69
235 -143 266 -203 8 -15 19 -25 25 -22 33 21 100 203 123 335 58 331 29 416
-128 375 -32 -8 -66 -20 -76 -25 -28 -15 -30 -13 -30 25 0 102 94 172 216 162
76 -6 155 -41 203 -91 l34 -35 -31 -69 c-88 -198 -87 -402 5 -562 67 -117 189
-236 340 -333 75 -48 285 -157 302 -157 9 0 6 154 -4 215 -2 11 -4 36 -4 56
l-1 37 -82 7 c-219 19 -338 92 -338 208 0 63 19 104 67 148 81 73 204 99 374
79 921 -106 1708 -623 2165 -1420 41 -72 49 -93 48 -135 -1 -97 -71 -201 -188
-277 l-59 -38 232 0 232 0 -2 142 c-3 234 -32 426 -100 662 -73 257 -228 601
-386 862 l-80 131 127 -5 c153 -5 261 13 365 63 81 39 170 114 214 182 17 27
55 66 84 89 61 47 77 74 77 129 0 60 -9 68 -55 53 -53 -18 -96 -79 -97 -138 0
-39 -6 -48 -62 -104 -203 -199 -519 -208 -779 -22 -74 52 -137 119 -277 291
-129 159 -428 461 -570 575 -299 239 -609 395 -915 460 -116 25 -402 35 -524
19z"/>
</g>
</svg>
