<?xml version="1.0" standalone="no"?>
<!DOCTYPE svg PUBLIC "-//W3C//DTD SVG 20010904//EN"
 "http://www.w3.org/TR/2001/REC-SVG-20010904/DTD/svg10.dtd">
<svg version="1.0" xmlns="http://www.w3.org/2000/svg"
 width="500.000000pt" height="500.000000pt" viewBox="0 0 500.000000 500.000000"
 preserveAspectRatio="xMidYMid meet">

<g transform="translate(0.000000,500.000000) scale(0.100000,-0.100000)"
fill="#000000" stroke="none">
<path d="M2103 3730 c-87 -16 -160 -49 -243 -110 -110 -82 -194 -195 -214
-287 l-7 -31 45 13 c27 8 61 11 83 7 l38 -6 -54 -7 c-37 -5 -66 -17 -95 -38
-109 -82 -180 -109 -242 -92 -45 12 -42 -4 7 -37 42 -29 94 -25 184 12 33 14
72 26 87 26 25 0 27 -2 18 -26 -24 -62 4 -101 120 -168 43 -25 86 -56 95 -68
16 -23 16 -23 31 -3 22 30 44 112 51 192 8 94 -2 108 -70 100 -46 -6 -48 -5
-42 16 4 12 16 30 28 41 31 26 110 18 144 -16 l24 -25 -21 -64 c-41 -118 -13
-209 93 -306 45 -41 179 -123 201 -123 8 0 8 69 0 109 -6 27 -11 31 -38 31
-46 0 -99 17 -124 40 -44 41 -20 116 46 141 41 16 130 12 242 -11 234 -48 437
-153 611 -317 111 -105 249 -299 249 -350 0 -38 -27 -81 -72 -113 l-41 -30
108 0 108 0 -8 93 c-9 123 -27 217 -64 325 -29 88 -119 277 -160 337 -12 17
-21 33 -21 38 0 4 35 7 78 7 101 1 149 22 230 106 62 63 83 111 55 121 -17 6
-53 -37 -53 -63 0 -29 -67 -87 -119 -102 -85 -26 -177 -9 -253 47 -21 16 -74
71 -117 122 -200 241 -417 400 -616 453 -74 20 -233 28 -302 16z"/>
<path d="M1520 1810 l0 -130 29 0 c28 0 30 2 33 48 3 47 3 47 41 50 31 3 37 7
37 27 0 20 -6 24 -37 27 -31 2 -39 7 -41 26 -3 20 1 22 42 22 44 0 46 1 46 30
l0 30 -75 0 -75 0 0 -130z"/>
<path d="M1750 1810 l0 -130 35 0 35 0 0 130 0 130 -35 0 -35 0 0 -130z"/>
<path d="M1920 1810 l0 -130 36 0 37 0 -6 93 -7 92 49 -90 48 -90 47 -3 46 -3
0 130 0 131 -30 0 -29 0 -3 -87 -3 -88 -45 87 -45 88 -47 0 -48 0 0 -130z"/>
<path d="M2286 1917 c-44 -44 -31 -94 34 -127 46 -23 58 -39 39 -51 -13 -8
-36 -6 -81 7 -14 4 -18 -1 -18 -24 0 -35 13 -42 81 -42 40 0 55 5 74 25 47 46
27 99 -52 139 -54 27 -32 58 26 38 26 -9 30 -8 40 15 7 14 9 28 6 31 -3 3 -32
8 -65 10 -53 4 -61 2 -84 -21z"/>
<path d="M2520 1810 l0 -130 35 0 35 0 0 130 0 130 -35 0 -35 0 0 -130z"/>
<path d="M2751 1927 c-39 -20 -64 -62 -65 -109 -2 -92 42 -138 131 -138 90 0
93 3 93 81 l0 69 -55 0 c-52 0 -55 -1 -55 -25 0 -18 5 -25 20 -25 13 0 20 -7
20 -20 0 -28 -25 -35 -55 -16 -20 13 -25 25 -25 57 0 22 4 49 10 59 12 23 52
33 85 20 23 -9 27 -7 36 17 7 20 6 28 -3 35 -20 12 -110 9 -137 -5z"/>
<path d="M3010 1810 l0 -130 35 0 35 0 0 56 0 55 38 -3 37 -3 3 -52 3 -53 35
0 34 0 0 130 0 130 -35 0 -35 0 0 -50 0 -50 -40 0 -40 0 0 50 0 50 -35 0 -35
0 0 -130z"/>
<path d="M3310 1910 c0 -27 3 -30 30 -30 l30 0 0 -100 0 -100 35 0 35 0 0 100
0 100 30 0 c27 0 30 3 30 30 l0 30 -95 0 -95 0 0 -30z"/>
<path d="M1912 1390 c0 -47 2 -78 5 -70 2 8 7 22 10 30 3 11 10 8 28 -15 13
-16 27 -27 30 -24 3 3 -4 18 -16 33 l-21 27 23 25 c12 13 18 24 12 24 -5 0
-20 -12 -34 -26 l-24 -26 -6 54 c-5 46 -6 41 -7 -32z"/>
<path d="M2910 1441 c0 -25 -3 -28 -25 -23 -34 6 -55 -14 -55 -53 0 -41 17
-55 63 -53 l37 1 0 79 c0 45 -4 78 -10 78 -5 0 -10 -13 -10 -29z m-4 -58 c8
-31 -6 -58 -31 -58 -22 0 -35 33 -24 63 12 32 47 29 55 -5z"/>
<path d="M1410 1386 c0 -44 4 -76 10 -76 6 0 10 28 11 63 l0 62 23 -59 c12
-33 27 -61 32 -63 5 -2 18 22 29 52 10 31 21 58 24 60 3 2 4 -23 3 -56 -3 -38
0 -59 7 -59 7 0 11 28 11 75 0 85 -17 101 -39 38 -34 -96 -31 -94 -56 -28 -13
34 -30 61 -39 63 -14 3 -16 -8 -16 -72z"/>
<path d="M2400 1385 c0 -43 4 -75 10 -75 6 0 10 14 10 30 0 25 4 30 24 30 27
0 56 24 56 45 0 24 -31 45 -66 45 l-34 0 0 -75z m61 55 c10 -6 19 -17 19 -25
0 -14 -29 -35 -49 -35 -12 0 -15 52 -4 63 8 9 11 9 34 -3z"/>
<path d="M3000 1449 c0 -5 5 -7 10 -4 6 3 10 8 10 11 0 2 -4 4 -10 4 -5 0 -10
-5 -10 -11z"/>
<path d="M2206 1435 c-11 -24 -8 -83 5 -107 5 -10 17 -18 27 -18 16 1 16 1 0
11 -12 7 -18 22 -18 49 0 28 5 40 18 43 15 4 15 5 0 6 -9 0 -18 9 -20 19 -3
15 -5 15 -12 -3z"/>
<path d="M3218 1430 c-10 -11 -14 -20 -8 -20 5 0 10 -21 12 -47 3 -43 6 -48
28 -51 22 -2 23 -1 8 8 -12 7 -18 24 -18 50 0 28 5 40 18 43 15 4 15 5 0 6 -9
0 -18 8 -20 16 -2 13 -6 12 -20 -5z"/>
<path d="M1664 1411 c41 -8 42 -25 4 -36 -26 -8 -33 -15 -33 -35 0 -23 4 -25
43 -26 l42 -2 0 38 c0 60 -7 70 -49 69 -35 -1 -35 -2 -7 -8z m26 -76 c-18 -21
-40 -19 -40 4 0 13 8 21 23 23 26 4 33 -7 17 -27z"/>
<path d="M1791 1360 c1 -30 3 -44 6 -30 9 58 15 71 36 80 19 8 18 9 -10 7
l-33 -1 1 -56z"/>
<path d="M2052 1391 c-15 -42 5 -75 46 -79 17 -2 32 1 32 6 0 5 -11 7 -24 5
-17 -4 -27 1 -35 16 -11 20 -9 21 29 21 32 0 40 4 40 18 0 26 -20 42 -51 42
-21 0 -29 -7 -37 -29z m66 2 c2 -9 -7 -13 -28 -13 -28 0 -31 2 -20 15 15 18
41 16 48 -2z"/>
<path d="M2560 1363 c0 -29 5 -53 10 -53 6 0 10 18 10 39 0 29 6 44 21 55 21
14 21 15 -10 14 -31 -1 -31 -1 -31 -55z"/>
<path d="M2682 1391 c-15 -42 5 -75 46 -79 17 -2 32 1 32 6 0 5 -11 7 -24 5
-17 -4 -27 1 -35 16 -11 20 -9 21 29 21 32 0 40 4 40 18 0 26 -20 42 -51 42
-21 0 -29 -7 -37 -29z m66 2 c2 -9 -7 -13 -28 -13 -28 0 -31 2 -20 15 15 18
41 16 48 -2z"/>
<path d="M3000 1365 c0 -30 5 -55 10 -55 6 0 10 25 10 55 0 30 -4 55 -10 55
-5 0 -10 -25 -10 -55z"/>
<path d="M3092 1408 c-15 -15 -16 -53 -2 -79 11 -19 70 -28 70 -10 0 5 -8 7
-18 4 -25 -6 -44 20 -40 54 2 22 9 29 33 34 l30 7 -30 1 c-17 0 -36 -4 -43
-11z"/>
<path d="M3328 1394 c-23 -50 37 -107 78 -74 17 15 19 71 2 88 -22 22 -67 14
-80 -14z m72 0 c18 -21 1 -69 -24 -69 -26 0 -40 27 -32 58 7 31 36 36 56 11z"/>
<path d="M3490 1363 c0 -29 5 -53 10 -53 6 0 10 20 10 45 0 38 4 47 23 55 19
7 18 8 -10 7 -33 -2 -33 -2 -33 -54z"/>
</g>
</svg>
